PathFileType	4	(X/Y/Z)	Patient4_TMGait_0pt7_02_left_28.trc.trc
DataRate	CameraRate	NumFrames	NumMarkers	Units	OrigDataRate	OrigDataStartFrame	OrigNumFrames
86.956521739130	86.956521739130	6	33	mm	86.956521739130	89	       141
Frame#	Time	Sacral			L.Shoulder			Chest			R.Shoulder			Neck			R.ASIS			L.ASIS			R.Thigh.Superior			R.Thigh.Lateral			R.Thigh.Inferior			R.Patella			L.Thigh.Superior			L.Thigh.Lateral			L.Thigh.Inferior			L.Patella			L.Shank.Superior			L.Shank.Lateral			L.Shank.Inferior			R.Shank.Superior			R.Shank.Lateral			R.Shank.Inferior			R.Heel			R.Midfoot.Superior			R.Midfoot.Lateral			R.Toe			L.Heel			L.Midfoot.Lateral			L.Midfoot.Superior			L.Toe			L.Elbow			L.Wrist			R.Elbow			R.Wrist			
		X1	Y1	Z1	X2	Y2	Z2	X3	Y3	Z3	X4	Y4	Z4	X5	Y5	Z5	X6	Y6	Z6	X7	Y7	Z7	X8	Y8	Z8	X9	Y9	Z9	X10	Y10	Z10	X11	Y11	Z11	X12	Y12	Z12	X13	Y13	Z13	X14	Y14	Z14	X15	Y15	Z15	X16	Y16	Z16	X17	Y17	Z17	X18	Y18	Z18	X19	Y19	Z19	X20	Y20	Z20	X21	Y21	Z21	X22	Y22	Z22	X23	Y23	Z23	X24	Y24	Z24	X25	Y25	Z25	X26	Y26	Z26	X27	Y27	Z27	X28	Y28	Z28	X29	Y29	Z29	X30	Y30	Z30	X31	Y31	Z31	X32	Y32	Z32	X33	Y33	Z33	

89	32.932000000000	859.973196841291	996.024989265186	491.569885975204	1062.711384508077	1414.824782817892	305.536050960302	1162.933259857352	1336.464948223291	465.752613554043	1087.784136579153	1417.428565762183	639.292146068950	1072.204757967994	1475.603925083834	459.155340133640	1087.277703372655	925.466511144515	609.906191335599	1070.509341066876	939.113793619377	331.428335773148	1158.623299317543	750.319965438264	580.191799043436	1098.758713681186	630.604164764408	641.585587771453	1186.154416326279	591.003964869350	562.947174956620	1204.845014622756	499.672305956227	571.820947267440	1102.950578739820	721.129796901446	356.981829157820	1011.154165694299	611.874630022051	289.271151862762	1093.951840522979	521.669524468786	345.053471085768	1080.210183198026	436.123724468875	341.394171589871	1005.991140169570	384.138227642940	334.449663255556	862.200392960738	356.236618628920	284.731661643699	834.633187116159	230.411550164227	339.700671447390	1176.765689922649	408.258598639979	579.364476919286	1109.153542085557	303.565834087395	643.516862745413	1152.512250151517	208.507548312395	581.793060551215	1020.825558805768	44.222735662440	556.641628811183	1192.796992537037	97.750690809833	590.018998996885	1104.899570468165	37.823176484484	629.558683114546	1313.115902072531	43.280199890434	616.923068975651	637.743099926651	181.679739945338	374.361560221068	693.088588000757	133.588609726296	294.752679079632	796.883761783556	133.958566924071	317.979302663034	867.691442960583	30.502083467101	290.445713647163	1079.565763205725	1078.606197785566	164.241317219344	1324.487188961187	1078.878774466067	229.560637567941	956.951778073846	1098.341271511966	757.918424415902	929.464015564761	837.416975465835	748.187371127577	
90	32.943500000000	859.860196992322	997.947172150502	494.555964817582	1062.818662287210	1416.045275976724	307.306419339617	1163.824447826232	1337.541828727489	466.991048145157	1089.882459127553	1418.711114432641	640.903972565168	1073.418579849608	1476.840700742361	460.916829118210	1087.321222545933	926.859462189069	611.844781228712	1070.085057134926	940.768259585526	333.763804886142	1156.747292353747	749.497200269408	583.366235651439	1094.885598232196	630.759502391559	643.574204737166	1181.793872391855	590.302257275099	564.757705083307	1199.414415847245	498.929293424338	573.231187920820	1107.907469075123	725.056907623876	359.485240072672	1020.640254646403	613.307980057691	291.137811635790	1106.265539956453	525.269700303160	347.227351235910	1093.984819465400	438.553872345070	343.183728077228	1018.400129082775	386.563756365153	336.146464571449	873.550247931694	363.163353374261	286.692240092552	842.574027424817	237.794345003303	341.150728633674	1170.661352545460	407.891354010090	580.637471102265	1102.507744873012	303.447092222082	644.385586892960	1145.294826690747	208.348045285996	582.427993118420	1012.930396937394	44.279719760143	556.867848704110	1184.904717767890	97.927272176471	590.529052910477	1096.961736005012	37.817194725594	629.762505302785	1305.165148041539	43.147265447985	617.296985563673	644.423926691016	197.656651890689	376.171996593866	697.186455352987	146.681978413206	296.284212534413	801.339110801767	141.137640639298	319.416165604062	865.816002599087	30.964313736628	291.205667106837	1070.936177694700	1077.517966429787	168.981618754062	1316.915848780332	1064.522034938232	231.062866437528	962.658728264691	1098.012312639455	760.500794697596	942.522468604786	836.372126178934	750.157335442657	
91	32.955000000000	859.565524138665	999.884506925183	497.374373699890	1062.602095021755	1417.230430144100	308.886512861490	1164.524902104674	1338.583987237903	467.945101118127	1091.917587951242	1419.921309597292	642.315297699716	1074.411952946776	1478.041207850548	462.504353009890	1087.119638678386	928.197745088090	613.672708809336	1069.608826321009	942.459504370514	336.134591241159	1154.508012451050	748.628830123346	586.383878058938	1090.731588722023	630.910475047199	645.485334067871	1177.097440342863	589.607198492462	566.460849690008	1193.624651222883	498.223469886984	574.572671618314	1112.534208523775	729.307079313654	362.058134893475	1029.802632551654	615.303959718762	292.926261120679	1118.060426186636	529.546342780366	349.453288988914	1107.469526296515	441.753349845207	345.101129259727	1030.819674767092	389.554684192204	337.907556493613	885.205894544650	369.933911610713	288.577083946897	851.346029035040	244.989252046885	342.621654095705	1164.279659567688	407.549455918419	581.842647651979	1095.635992793126	303.315937860930	645.196833799545	1137.961756219238	208.206567571670	583.021209451619	1004.982069237591	44.346737286786	557.054816133789	1176.981031528282	98.027688861809	590.987439593818	1088.967824668720	37.798059431419	629.931343705437	1297.171687415322	42.939888536614	617.621239982281	652.383467800933	212.000544547089	377.837089488923	702.994475211350	158.730806622769	297.748027412481	807.242143389476	148.295394329653	320.891719489386	866.314367419609	32.234348121369	292.083420340935	1062.383731376079	1076.628410450913	173.718743487373	1308.598024773792	1048.881924657931	232.318601954343	968.698084185766	1097.549332751962	763.091589422677	956.679729108455	835.334378726292	752.185929238968	
92	32.966500000000	859.095784416197	1001.797303011864	500.016054396686	1062.100703276195	1418.359614766040	310.283789483426	1165.038292471782	1339.570331785621	468.641911131616	1093.881237512208	1421.064645096482	643.530705998563	1075.204799181223	1479.194371789167	463.914951682007	1086.698192440754	929.479865204441	615.419990190485	1069.074241663696	944.170792316829	338.484988336552	1151.990373579246	747.795196769499	589.140963949726	1086.423258871240	631.081937758883	647.284468794576	1172.187372587804	588.942728334073	568.021619847954	1187.599653399668	497.570172068138	575.816414013765	1116.766874413512	733.841059516168	364.695885077194	1038.547732788086	617.838968998706	294.624188307621	1129.250130402011	534.448606977021	351.680718382842	1120.568894020592	445.682637341323	347.057884183359	1043.162023758241	393.063629517977	339.666314869374	897.042366158149	376.371951579312	290.337517978923	860.943266450544	251.752854004113	344.041816945916	1157.735145425013	407.240538406325	582.953834070584	1088.632254792422	303.197646058331	645.946192944670	1130.562260449958	208.086989368993	583.558841975171	996.978812792002	44.431365462281	557.213185133057	1169.021239209664	98.052842096743	591.369060027069	1080.920673317336	37.777677251344	630.073177692056	1289.137860973575	42.683478724604	617.895971422173	661.517950018495	224.171674316372	379.275111030060	710.527873312483	169.241164943223	299.067242059131	814.695508231943	155.121314791095	322.311458142793	869.560676940422	34.304325122510	293.030439887066	1054.035316824933	1075.901491494343	178.443338773200	1299.393509212338	1032.017549770646	233.296694181595	975.059294315558	1096.972639152307	765.656000933343	971.880850415225	834.401802050199	754.239246067029	
93	32.978000000000	858.461334300672	1003.651861875064	502.487480173110	1061.356694571077	1419.415173928557	311.509055204044	1165.370063860420	1340.489490185881	469.117025311351	1095.757128810756	1422.156467980352	644.556953237186	1075.817976610575	1480.292741094384	465.145655539327	1086.088559333417	930.707371943469	617.103272293744	1068.450278255375	945.882183370536	340.755440453568	1149.277698472000	747.048376448802	591.567382247962	1082.046456716738	631.283372213379	648.941558526410	1167.152872748258	588.317509420993	569.414197999940	1181.428753840306	496.972101537579	576.928117176372	1120.564395097595	738.617217752234	367.380702450006	1046.817869022106	620.874584403036	296.216589829034	1139.786903540239	539.909231767536	353.856616970990	1133.215021713752	450.288963266739	348.969060042635	1055.371141746285	397.029308874776	341.353837866466	908.963877003122	382.310246037746	291.928908511520	871.376697458530	257.858152383692	345.342952437604	1151.110246880101	406.965910681134	583.947231073188	1081.565105670560	303.107447241397	646.628040683621	1123.130607577309	207.990151774389	584.029959342247	988.925634588677	44.532944540178	557.352314037612	1161.023668516214	98.013477014145	591.660401934795	1072.828790202402	37.762692939313	630.194723832819	1281.069211598940	42.410130974766	618.124942337532	671.751353410424	233.758134128192	380.436971293880	719.774696260170	177.818536599998	300.178833667543	823.779094346053	161.309883469293	323.581753398072	875.813406253873	37.041359785175	293.959262666210	1045.997346337266	1075.295777466430	183.146777076147	1289.143533316029	1014.033629608952	233.974141328464	981.730353938765	1096.313114841497	768.162546082356	988.102471955330	833.691983516811	756.255953739890	
94	32.989500000000	857.675733739238	1005.422588835691	504.807371318147	1060.410501497634	1420.379789068687	312.574841172637	1165.527108651372	1341.336527131665	469.409897826743	1097.524256079367	1423.214609857046	645.403231454903	1076.270472377354	1481.329653363670	466.194510104760	1085.325625341167	931.879663073960	618.722175403058	1067.678798435404	947.564363510959	342.894744729582	1146.441682917252	746.409071654580	593.626388191508	1077.651845474913	631.511978489051	650.433713740076	1162.050274521792	587.728167015894	570.621581806609	1175.167634804714	496.421655889433	577.875783053085	1123.905661420122	743.592628044706	370.082319301062	1054.584718813949	624.359729653635	297.687546761696	1149.650538544313	545.847914963129	355.932509977680	1145.359981271816	455.507699261482	350.762408928043	1067.412653160736	401.380074300055	342.906015659673	920.899696877446	387.601007348136	293.315190837872	882.663730773277	263.110684596643	346.464303636793	1144.455699664097	406.720271292489	584.804669776005	1074.477945377156	303.050022912912	647.237518126401	1115.686303593911	207.912520263310	584.426760942232	980.831130145671	44.643712624392	557.479507956007	1152.988714030478	97.925733475801	591.859697125803	1064.703168899055	37.755029689686	630.301431248627	1272.972535422478	42.150853821981	618.313319987571	683.042974356726	240.495254656694	381.308347524895	730.698290785905	184.190816781768	301.037062567313	834.539136000443	166.587165084750	324.614109296188	885.187684436286	40.209063136757	294.746327960708	1038.351549240266	1074.765572259168	187.818141989435	1277.679806679033	995.094383124409	234.339652792398	988.695896551241	1095.607356391126	770.587315536914	1005.345100277415	833.340863102436	758.148541454499	
